#N canvas 1473 188 450 300 10;
#X declare -lib mrpeach;
#X obj 15 40 unpackOSC;
#X obj 328 130 import mrpeach;
#X obj 328 107 loadbang;
#X obj 33 203 packOSC;
#X obj 15 247 udpsend;
#X msg 26 158 disconnect;
#X obj 15 268 tgl 15 0 CONNECT_LOCAL_TOGGLE GLOBAL_CONNECT_LOCAL_TOGGLE
connected 20 7 0 8 -258699 -241291 -33289 0 1;
#X obj 33 225 spigot;
#X floatatom 15 90 5 0 0 0 - - -;
#X obj 15 17 udpreceive 12345;
#X msg 15 135 connect localhost 12346;
#X obj 15 63 routeOSC /players;
#X obj 139 57 print;
#X connect 0 0 11 0;
#X connect 0 0 12 0;
#X connect 2 0 1 0;
#X connect 3 0 7 0;
#X connect 4 0 6 0;
#X connect 5 0 4 0;
#X connect 6 0 7 1;
#X connect 7 0 4 0;
#X connect 9 0 0 0;
#X connect 10 0 4 0;
#X connect 11 0 8 0;
